<svg viewBox="0 0 560 160" xmlns="http://www.w3.org/2000/svg">
  <g transform="translate(0,0) scale(0.8)">
    <defs>
    <linearGradient id="navyH1" x1="15%" y1="0%" x2="85%" y2="100%">
  <stop offset="0%" stop-color="#3576DE"/>
  <stop offset="45%" stop-color="#15399A"/>
  <stop offset="100%" stop-color="#081C4D"/>
</linearGradient>
    <linearGradient id="cyanH1" x1="0%" y1="0%" x2="0%" y2="100%">
  <stop offset="0%" stop-color="#33E2F2"/>
  <stop offset="100%" stop-color="#0CA9CC"/>
</linearGradient>
    <clipPath id="clipH1"><path d="M100,34 C132,70 155,102 155,128 C155,160 130,180 100,180 C70,180 45,160 45,128 C45,102 68,70 100,34 Z"/></clipPath>
    <mask id="maskH1" maskUnits="userSpaceOnUse" x="0" y="0" width="200" height="200">
      <rect x="0" y="0" width="200" height="200" fill="#fff"/>
      <polyline points="78,118 100,76 122,118" fill="none" stroke="#000" stroke-width="13" stroke-linecap="round" stroke-linejoin="round"/>
      <rect x="-10" y="142" width="220" height="9" fill="#000"/>
      <rect x="-10" y="160" width="220" height="9" fill="#000"/>
    </mask>
  </defs>
  <circle cx="100" cy="100" r="92" fill="none" stroke="url(#navyH1)" stroke-width="7" opacity="0.85"/>
  <g clip-path="url(#clipH1)">
    <g mask="url(#maskH1)">
      <rect x="0" y="0" width="200" height="200" fill="url(#navyH1)"/>
      <rect x="-10" y="151" width="220" height="40" fill="url(#cyanH1)"/>
    </g>
  </g>
  </g>
  <text x="195" y="103" font-family="Liberation Sans, Arial, sans-serif" font-weight="700" font-size="62" letter-spacing="3" fill="#15399A">ARTEZ</text>
</svg>